<?xml version="1.0" encoding="utf-8"?>
<!-- Generator: Adobe Illustrator 26.5.0, SVG Export Plug-In . SVG Version: 6.00 Build 0)  -->
<svg version="1.1" id="Layer_1" xmlns="http://www.w3.org/2000/svg" xmlns:xlink="http://www.w3.org/1999/xlink" x="0px" y="0px"
	 viewBox="0 0 300 160" style="enable-background:new 0 0 300 160;" xml:space="preserve">
<style type="text/css">
	.st0{fill:#4285F4;}
	.st1{fill:#00133A;}
	.st2{fill:#CD1417;}
</style>
<g>
	<path class="st0" d="M98.6,63.2v33.7c0,1.4-0.5,2.7-1.5,3.7c-1,1-2.3,1.5-3.7,1.5H72c-0.1,0-0.2,0-0.2,0.1
		c-0.1,0.1-0.1,0.1-0.1,0.2v21.4c0,1.4-0.5,2.7-1.5,3.7c-1,1-2.3,1.5-3.7,1.5H28c-0.1,0-0.2,0-0.2-0.1c-0.1-0.1-0.1-0.1-0.1-0.2
		v-10.3c0-1.8,0.8-3.5,2.1-4.8c1.3-1.3,3-2,4.9-2c0.6,0,1.2,0.1,1.8,0.2h0c0.3,0.1,0.6,0.2,0.9,0.3c0.2,0.1,0.3,0.1,0.5,0.1h0h0
		c2.4,0.7,5,1.2,7.5,1.2h0.4c1.1,0,2.3-0.1,3.4-0.2c0.8-0.1,1.5-0.2,2.2-0.4c8.5-1.9,14.3-7.6,16.8-10.4c0.1-0.1,0.3-0.3,0.4-0.4
		c0.3-0.3,0.5-0.6,0.7-0.8c0.3-0.3,0.5-0.7,0.6-1.1c0.3-0.6,0.4-1.4,0.4-2.1c0-0.7-0.1-1.4-0.4-2.1c-0.3-0.8-0.9-1.5-1.6-2.1
		c-0.7-0.6-1.6-0.9-2.5-1c-0.9-0.1-1.9,0-2.7,0.4c-0.8,0.3-1.5,0.9-2,1.6c-0.1,0.1-0.3,0.4-0.7,0.9L60,96c-2.4,2.6-5.3,4.7-8.6,6
		c-1.4,0.5-2.9,0.9-4.4,1H47c-0.4,0-0.8,0-1.2,0h-0.2c-1.6,0-3.2-0.3-4.7-0.8c-0.3-0.1-0.6-0.2-0.9-0.3c-1.6-0.6-3.2-1.4-4.6-2.4
		c-0.3-0.2-0.6-0.4-0.9-0.7c-0.8-0.6-1.5-1.3-2.2-2c-0.3-0.3-0.5-0.6-0.8-0.9l-0.1-0.2c-1.4-1.7-2.5-3.6-3.3-5.7v-0.1
		c-0.1-0.3-0.2-0.6-0.3-0.8c-0.1-0.2-0.1-0.4-0.2-0.6c-0.4-1.5-0.6-3.1-0.6-4.7c0-1.7,0.2-3.3,0.6-4.9c0.7-2.8,2-5.4,3.9-7.6
		c0.3-0.3,0.5-0.6,0.8-0.9c0.9-1,2-1.9,3.1-2.7c0.4-0.3,0.8-0.5,1.3-0.8c2.3-1.3,4.9-2.1,7.6-2.3c2.7-0.2,5.4,0.3,7.8,1.3h0.1
		c2.6,1.1,4.9,2.8,6.8,4.9c1.9,2.1,3.3,4.6,4,7.4c0,0,0,0.1,0,0.2c0,0.1,0,0.1-0.1,0.1c0,0-0.1,0.1-0.1,0.1c0,0-0.1,0-0.1,0H40.2
		c-0.2,0-0.4,0-0.7,0h-0.1c-0.9,0.1-1.7,0.5-2.4,1c-0.7,0.5-1.2,1.3-1.6,2.1c-0.2,0.4-0.3,0.8-0.3,1.2c0,0,0,0.1,0,0.1
		c0,0.2-0.1,0.5-0.1,0.7c0,1.4,0.5,2.7,1.5,3.7c1,1,2.3,1.5,3.7,1.5h28.8c1.4,0,2.7-0.5,3.7-1.5c1-1,1.5-2.3,1.5-3.7
		c0-2.4-0.3-4.8-0.9-7.1c0,0,0,0,0,0c0,0,0,0,0,0c0,0,0-0.1,0-0.2c0,0,0,0,0-0.1c-0.4-1.6-1-3.2-1.7-4.7c-0.2-0.5-0.4-0.9-0.7-1.4
		c-0.3-0.5-0.6-1-0.9-1.6c-0.2-0.3-0.4-0.7-0.6-1l-0.3-0.5c-0.2-0.3-0.4-0.6-0.7-1c-0.4-0.5-0.7-0.9-1.1-1.4
		c-0.1-0.1-0.2-0.3-0.3-0.4c-0.3-0.4-0.6-0.7-1-1.1l-0.2-0.2l-0.5-0.5c-1.7-1.6-3.5-3.1-5.5-4.3l0,0c-0.2-0.1-0.4-0.2-0.6-0.3
		c-0.4-0.2-0.8-0.4-1.2-0.6c-3.9-2-8.2-3-12.6-3c-0.3,0-0.6,0-0.8,0c-0.1,0-0.2,0-0.4,0h-0.1c-0.2,0-0.4,0-0.6,0
		c-4.2,0.3-8.3,1.5-12,3.5c-0.9,0.5-1.7,1-2.5,1.5c-0.5,0.4-1,0.8-1.5,1.2c-1.5,1.2-2.8,2.5-4,4c-3.3,4-5.5,8.8-6.5,13.9
		c-0.2,0.9-0.3,1.8-0.4,2.7c0,0.1,0,0.2,0,0.3c0,0.1,0,0.2,0,0.3c0,0,0,0,0,0c0,0.1,0,0.3,0,0.4c0,0.5,0,1.1,0,1.6
		c0,3,0.5,6,1.4,8.9v0.1c0.3,1,0.4,2.1,0.2,3.2c-0.2,1.1-0.6,2.1-1.2,3s-1.5,1.6-2.4,2.1c-1,0.5-2,0.8-3.1,0.8H1.1
		c-0.1,0-0.2,0-0.2-0.1c-0.1-0.1-0.1-0.1-0.1-0.2V63.2c0-1.4,0.5-2.7,1.5-3.7c1-1,2.3-1.5,3.7-1.5h21.4c0.1,0,0.2,0,0.2-0.1
		c0.1-0.1,0.1-0.1,0.1-0.2V36.3c0-1.4,0.5-2.7,1.5-3.7c1-1,2.3-1.5,3.7-1.5h33.7c1.4,0,2.7,0.5,3.7,1.5c1,1,1.5,2.3,1.5,3.7v21.4
		c0,0.1,0,0.2,0.1,0.2C71.8,58,71.9,58,72,58h21.4c0.7,0,1.4,0.1,2,0.4c0.6,0.3,1.2,0.6,1.7,1.1c0.5,0.5,0.9,1.1,1.1,1.7
		C98.4,61.8,98.6,62.5,98.6,63.2z"/>
	<path class="st1" d="M28.4,115.3c0.2-0.4,0.5-0.8,0.7-1.2c0.6-0.7,1.3-1.3,2.1-1.8c0.8-0.4,1.7-0.7,2.6-0.8c0.7-0.1,1.4,0,2.1,0.1
		c0.2,0,0.4,0.1,0.5,0.1c0.3,0.1,0.7,0.2,1.2,0.4c0.1,0,0.7,0.2,1.4,0.4c1,0.3,2.1,0.5,3.2,0.6c2,0.3,4,0.3,5.9,0.2
		c2-0.2,4-0.6,6-1.3c1.5-0.5,3.1-1.2,4.5-1.9c0.9-0.5,1.7-1,1.7-1c0.1-0.1,0.5-0.3,1.1-0.7c1-0.7,1.7-1.2,2-1.5
		c0.2-0.2,0.8-0.6,1.5-1.2c0,0,1.2-1.1,2.2-2.1c0.2-0.2,0.4-0.5,0.4-0.5c0.1-0.2,0.4-0.4,0.6-0.7c0.3-0.3,0.5-0.6,0.8-0.9
		c-0.2,0.5-0.5,1.1-0.8,1.6c-0.1,0.2-0.3,0.4-0.4,0.6c-0.4,0.5-0.7,1-1.1,1.3c-0.4,0.5-1.2,1.4-3.1,3.3c-2.4,2.1-5.1,3.8-8.1,5
		c-2.2,0.9-4.6,1.4-7,1.6c-2.7,0.1-5.3-0.2-7.9-0.8c-1.6-0.3-2.1-0.5-3.1-0.7c-1.2-0.5-2.6-0.7-3.9-0.6
		C31.6,113.1,29.8,113.9,28.4,115.3z"/>
	<path class="st0" d="M145.5,80.7v3h-32.7v-4l2.8-1.9V45.3l-2.8-1.9v-4h31.7v8.9h-4l-1.9-2.8h-15.4v12.4h14.2l1.9-2.8h4v11.5h-4
		l-1.9-2.8h-14.2v13.8h16.3l1.9-2.7h4L145.5,80.7L145.5,80.7z"/>
	<path class="st0" d="M194.7,83.8h-6.4v-4l2.7-1.9l0-30.3l-10.9,36.2h-6.7l-11-35.4v29.5l2.8,1.9v4h-12.8v-4l2.8-1.9V45.3l-2.8-1.9
		v-4h14.3l10.1,33.2l9.8-33.2h14.7v4l-2.8,1.9v32.6l2.8,1.9v4H194.7z"/>
	<path class="st0" d="M229.8,74l6.5,2.4c-0.3,1.2-0.9,2.3-1.7,3.3c-0.9,1-2,1.9-3.2,2.5c-1.3,0.7-2.8,1.3-4.3,1.6
		c-1.7,0.4-3.4,0.6-5.1,0.6c-2,0-3.9-0.3-5.8-0.9c-1.7-0.6-3.2-1.6-4.4-2.9c-1.3-1.4-2.4-3.1-3-5c-0.7-2.3-1.1-4.7-1-7.2
		c0-2.4,0.3-4.9,1.1-7.2c0.6-1.9,1.6-3.6,3-5c1.3-1.3,2.9-2.3,4.6-2.9c1.9-0.7,4-1,6-0.9c2.3-0.1,4.6,0.3,6.8,1.2
		c1.8,0.7,3.4,1.9,4.6,3.4c1.2,1.5,2.1,3.3,2.6,5.3c0.6,2.2,0.8,4.5,0.8,6.8h-22c0.1,3.4,0.7,5.9,1.9,7.4c0.6,0.7,1.3,1.4,2.1,1.8
		c0.8,0.4,1.8,0.6,2.7,0.6c1.8,0.1,3.6-0.4,5.1-1.3c0.7-0.4,1.2-0.9,1.7-1.5C229.2,75.4,229.6,74.7,229.8,74z M229.9,64.2
		c-0.3-1.8-1.2-3.5-2.5-4.8c-1.2-1.2-2.9-1.7-5-1.7c-1.6,0-3.2,0.5-4.4,1.6c-1.2,1-2,2.7-2.5,4.9H229.9z"/>
	<path class="st0" d="M240.8,68.4c0-2.2,0.3-4.4,0.9-6.5c0.5-1.8,1.4-3.5,2.5-5c1-1.4,2.4-2.5,3.9-3.3c1.6-0.8,3.3-1.2,5.1-1.2
		c1.8,0,3.7,0.4,5.3,1.3c1.6,0.9,2.9,2.2,4,3.7V45.3l-2.8-1.9v-4h9.7v38.5l2.8,1.9v4h-9.7v-4.4c-1,1.5-2.4,2.8-4,3.7
		c-1.6,0.9-3.5,1.3-5.3,1.3c-1.8,0-3.5-0.4-5.1-1.2c-1.5-0.8-2.8-1.9-3.9-3.2c-1.1-1.5-2-3.2-2.5-5
		C241.1,72.8,240.8,70.6,240.8,68.4z M262.5,68.4c0-3.1-0.6-5.6-1.9-7.5c-1.3-1.9-3-2.8-5.1-2.8c-1,0-2.1,0.2-3,0.7
		c-0.9,0.5-1.7,1.2-2.2,2.1c-1.3,1.9-2,4.4-2,7.5c0,3.1,0.7,5.6,2,7.5c0.5,0.9,1.3,1.6,2.2,2.1c0.9,0.5,1.9,0.8,3,0.7
		c2.1,0,3.8-0.9,5.1-2.8C261.8,74,262.5,71.5,262.5,68.4z"/>
	<path class="st2" d="M136.6,90.4l0.1,0.4c0,0.1,0,0.3,0,0.4l-0.1,0.5c0,0.2-0.1,0.4-0.1,0.6c0,0.2-0.1,0.4-0.1,0.6l-0.4,1.7
		c-0.1,0.5-0.3,1-0.4,1.5c-0.2,0.5-0.3,1-0.5,1.5c-0.4,1.2-0.8,2.5-1.1,3.7c-0.3,1.2-0.7,2.4-1,3.7c0.2,0,0.3,0,0.5,0h0.5l0.7,0.1
		c0.2,0,0.5,0.1,0.7,0.2c0.2,0.1,0.4,0.2,0.5,0.4c0,0.1,0.1,0.2,0.1,0.2c0,0.1-0.1,0.2-0.1,0.2c-0.1,0.1-0.3,0.2-0.4,0.2l-0.5,0.1
		h-0.3h-0.8c-0.2,0-0.4,0-0.6,0h-0.5c0,0,0,0.1,0,0.1c0,0,0,0.1,0,0.1c-0.2,0.7-0.3,1.3-0.4,1.9c-0.1,0.6-0.3,1.3-0.4,1.9l-0.3,2.1
		c0,0.3-0.1,0.7-0.1,1c0,0.3-0.1,0.7-0.2,1c0,0.2,0,0.3-0.1,0.4c0,0.2-0.1,0.3-0.1,0.4c0,0.2-0.1,0.4-0.1,0.6c0,0.2-0.1,0.4-0.1,0.6
		c-0.1,0.2-0.1,0.3-0.2,0.4c-0.1,0.1-0.2,0.2-0.4,0.3c-0.3,0.1-0.6,0.2-1,0.2c-0.5,0-1-0.1-1.5-0.3c-0.5-0.2-0.9-0.5-1.2-0.9
		c-0.1-0.1-0.2-0.3-0.2-0.4c0-0.1-0.1-0.3-0.1-0.4c0,0,0-0.1,0-0.1c0,0,0-0.1,0-0.1c0-0.6,0-1.3,0-1.9c0.1-0.6,0.1-1.2,0.2-1.9
		c0.1-0.8,0.3-1.7,0.4-2.5c0.2-0.8,0.3-1.7,0.5-2.5c-0.1,0-0.2,0-0.3,0c-0.1,0-0.2,0-0.3,0c-1.5,0.1-2.9,0.2-4.3,0.3l-1.9,0.2
		c-0.1,0.6-0.2,1.1-0.3,1.7c-0.1,0.6-0.2,1.1-0.3,1.7c-0.1,0.7-0.2,1.4-0.3,2.1c-0.1,0.7-0.2,1.4-0.3,2.1c0,0.2-0.1,0.3-0.1,0.4
		c0,0.1,0,0.3-0.1,0.4c0,0.2-0.1,0.4-0.1,0.6c0,0.2-0.1,0.4-0.2,0.6c0,0.1-0.1,0.3-0.2,0.4c-0.1,0.1-0.2,0.2-0.4,0.3
		c-0.3,0.1-0.6,0.2-1,0.2c-0.2,0-0.5,0-0.7-0.1l-0.6-0.1c-0.3-0.1-0.5-0.3-0.8-0.4c-0.3-0.1-0.5-0.4-0.6-0.6
		c-0.1-0.1-0.2-0.3-0.2-0.4c-0.1-0.1-0.1-0.3-0.1-0.5c0-0.1,0-0.2,0-0.2c0-0.3,0-0.6,0-0.9c0-0.3,0-0.6,0.1-0.9c0-0.3,0-0.6,0.1-0.9
		c0-0.3,0.1-0.6,0.1-0.9c0.1-0.6,0.2-1.2,0.3-1.9c0.1-0.6,0.2-1.3,0.4-1.9l-1.2,0.1c-0.2,0-0.4,0-0.6-0.1c-0.2-0.1-0.4-0.2-0.5-0.4
		c-0.1,0-0.1-0.1-0.1-0.2c0-0.1,0-0.2,0-0.2c0-0.1,0.1-0.1,0.2-0.2c0.1,0,0.1-0.1,0.2-0.1c0.4-0.1,0.8-0.2,1.1-0.2l1.1-0.2l0.6-2.5
		c0.3-1.2,0.7-2.4,1-3.6c0.3-1.2,0.7-2.4,1.1-3.6c0.1-0.3,0.2-0.6,0.3-0.9c0.1-0.3,0.2-0.6,0.3-0.9c0.2-0.6,0.4-1.2,0.6-1.8
		c0.2-0.6,0.4-1.2,0.7-1.8l0.6-1.3c0.1-0.3,0.4-0.6,0.7-0.7c0.3-0.1,0.6-0.2,0.9-0.2c0.4,0,0.8,0.1,1.1,0.2c0.4,0.1,0.7,0.3,1,0.6
		c0.2,0.2,0.4,0.4,0.5,0.7l0.1,0.4c0,0.1,0,0.3,0,0.4c0,0.1,0,0.2,0,0.2c0,0.1,0,0.1,0,0.2l-0.3,1.1c-0.1,0.3-0.1,0.6-0.2,0.9
		c-0.1,0.3-0.1,0.5-0.2,0.8c-0.1,0.5-0.3,1-0.4,1.5c-0.2,0.5-0.3,1-0.5,1.5c-0.4,1.3-0.8,2.6-1.2,4c-0.4,1.3-0.7,2.7-1,4
		c1-0.1,1.9-0.2,2.8-0.3c0.9-0.1,1.8-0.1,2.7-0.2c0.2,0,0.4,0,0.6-0.1c0.2,0,0.4,0,0.6,0l0.3-1.2c0.3-1.2,0.7-2.4,1-3.6
		c0.3-1.2,0.7-2.4,1.1-3.6l0.3-0.9c0.1-0.3,0.2-0.6,0.3-0.9c0.2-0.8,0.5-1.5,0.8-2.2c0.3-0.7,0.6-1.5,0.9-2.2c0,0,0-0.1,0.1-0.2
		c0-0.1,0.1-0.2,0.1-0.2c0.1-0.3,0.4-0.5,0.7-0.7c0.3-0.2,0.6-0.2,1-0.2c0.4,0,0.8,0.1,1.2,0.2c0.4,0.1,0.7,0.3,1,0.6
		C136.3,89.9,136.4,90.2,136.6,90.4z"/>
	<path class="st2" d="M137.8,112.4c0-0.6,0-1.2,0.1-1.8c0.1-0.9,0.3-1.8,0.6-2.7c0.3-0.9,0.6-1.8,1-2.6c0.3-0.6,0.6-1.2,1-1.7
		c0.2-0.3,0.3-0.5,0.5-0.7c0.1-0.2,0.3-0.5,0.5-0.7l1.1-1.3c0.4-0.4,0.8-0.8,1.3-1.1c0,0,0,0,0,0s0,0,0,0c0.2-0.1,0.3-0.2,0.5-0.3
		l0.5-0.2l0.3-0.1c0.1,0,0.1,0,0.2,0c0,0,0,0,0,0c0,0,0.1,0,0.1,0c0,0,0.1,0,0.1,0h0.4c0.3,0,0.6,0,0.8,0.1c0.3,0.1,0.5,0.1,0.8,0.2
		c0,0,0.1,0,0.1,0c0,0,0,0,0.1,0c0,0,0.1,0,0.1,0c0,0,0.1,0,0.1,0c0.1,0,0.1,0,0.2,0.1c0.3,0.1,0.6,0.3,0.9,0.5c0,0,0.1,0.1,0.1,0.1
		l0.1,0.1c0,0,0,0,0.1,0c0,0,0.1,0.1,0.1,0.1l0.3,0.4c0.2,0.3,0.3,0.6,0.4,1c0.2,0.7,0.1,1.5-0.2,2.2l-0.3,0.5
		c-0.1,0.2-0.2,0.3-0.3,0.5l-0.3,0.4c-0.4,0.5-0.7,0.9-1.1,1.4c-0.5,0.5-1,1-1.6,1.4c-0.6,0.4-1.3,0.8-2,1.1
		c-0.8,0.3-1.6,0.5-2.5,0.5c-0.1,0.3-0.2,0.7-0.2,1c-0.1,0.3-0.1,0.6-0.2,1c-0.1,0.8-0.1,1.5,0,2.3c0,0.1,0,0.1,0,0.2
		c0,0.1,0,0.1,0,0.2l0.2,0.6l0.2,0.2h0c0,0,0,0,0,0c0,0,0,0,0,0c0,0,0,0,0.1,0l0,0c0.4,0.3,0.8,0.4,1.3,0.4c0.6,0,1.2-0.2,1.7-0.5
		c0.5-0.3,1-0.7,1.5-1.2c0.5-0.5,0.9-1,1.3-1.5c0.4-0.5,0.7-1,1-1.5c0,0.1,0.1,0.2,0,0.2l-0.4,1.5c0,0.1-0.1,0.2-0.1,0.4
		c0,0.1-0.1,0.2-0.2,0.4l-0.4,0.7c-0.5,0.9-1.2,1.6-2.1,2.1c-0.3,0.3-0.8,0.5-1.2,0.6c-0.4,0.1-0.9,0.2-1.3,0.2c-0.2,0-0.3,0-0.5,0
		c-0.2,0-0.3,0-0.5,0h0c0,0-0.1,0-0.1,0h-0.1c-0.3-0.1-0.6-0.2-0.9-0.3c-0.3-0.1-0.6-0.2-0.8-0.4c-0.5-0.3-1-0.7-1.3-1.2
		c-0.4-0.5-0.7-1-0.8-1.6c-0.1-0.2-0.1-0.4-0.2-0.6C137.8,112.9,137.8,112.7,137.8,112.4z M141.5,114.3c0,0,0-0.1,0-0.1
		C141.4,114.2,141.4,114.2,141.5,114.3C141.5,114.2,141.5,114.2,141.5,114.3z M141.9,117.1L141.9,117.1c0,0,0,0,0.1,0H141.9z
		 M148,104.5C148,104.5,148,104.4,148,104.5c0,0,0-0.1,0-0.1c0.1-0.1,0.2-0.3,0.2-0.4c0.1-0.1,0.1-0.3,0.2-0.4c0,0,0,0,0-0.1
		c0,0,0,0,0-0.1c0-0.1,0.1-0.3,0.1-0.4c0-0.1,0.1-0.3,0.1-0.4l0.1-0.2v-0.6c0-0.1,0-0.1,0-0.2c0-0.1,0-0.1,0-0.2v0l-0.1-0.3
		l-0.1-0.2c0,0,0-0.1,0-0.1l0,0c0-0.1-0.1-0.1-0.1-0.1c0,0,0,0,0,0s0,0,0,0c0,0,0,0,0,0c0,0,0,0,0,0c0,0-0.1-0.1-0.1-0.1
		c0,0-0.1-0.1-0.1-0.1l0,0c0,0,0,0-0.2-0.1h0c0,0,0,0,0,0h-0.3c0,0,0,0-0.1,0c0,0,0,0,0,0c0,0,0,0,0,0l-0.2,0.1c0,0,0,0-0.1,0
		c0,0,0,0,0,0c0,0,0,0,0,0c0,0,0,0-0.1,0.1c0,0-0.1,0-0.1,0c0,0,0,0.1-0.1,0.1l-0.2,0.2c-0.1,0.1-0.2,0.1-0.3,0.2
		c-0.1,0.1-0.2,0.1-0.3,0.2l-0.5,0.5c-0.3,0.5-0.7,0.9-1,1.4c-0.3,0.5-0.6,1-0.8,1.5l-0.8,1.8c-0.1,0.3-0.2,0.6-0.3,0.9
		c-0.1,0.3-0.2,0.6-0.3,0.9c0.4,0,0.8-0.1,1.1-0.2c0.5-0.1,1-0.3,1.5-0.5c0.6-0.3,1.1-0.7,1.6-1.1
		C147.1,105.8,147.6,105.2,148,104.5z"/>
	<path class="st2" d="M152.2,112.3c0-0.5-0.1-1,0-1.5c0-0.5,0-1,0.1-1.5c0.1-1.1,0.4-2.1,0.8-3.1c0.4-1,0.8-2,1.4-3
		c0.6-0.9,1.3-1.7,2.1-2.4c0.8-0.7,1.8-1.2,2.9-1.4c0.3-0.1,0.7-0.1,1-0.1c1.3,0,2.7,0.4,3.8,1.1c0.3,0.3,0.6,0.6,0.9,1l0.8-2.2
		c0.1-0.1,0.1-0.2,0.3-0.3s0.2-0.1,0.4-0.2c0.3-0.1,0.5-0.1,0.8-0.1c0.4,0,0.8,0.1,1.2,0.3c0.6,0.2,1.1,0.5,1.4,1
		c0.1,0.2,0.2,0.4,0.3,0.6c0,0.1,0.1,0.2,0.1,0.3c0,0.1,0,0.2-0.1,0.3c-0.7,1.7-1.2,3.5-1.8,5.2c-0.5,1.8-0.9,3.6-1.2,5.4l-0.2,1.3
		l0.1-0.3c-0.1,0.9-0.2,1.9-0.3,2.9c0,0.3,0,0.5,0,0.7c0,0.2,0,0.5,0,0.7v0.3c0,0.1,0,0.2,0,0.3c0,0.1,0,0.2,0,0.3v0.3
		c0,0.2,0.1,0.3,0.2,0.4c0.1,0.1,0.1,0.3,0.2,0.4l0,0.1v0l0,0c0,0,0,0,0,0.1c0,0,0,0,0,0l0,0c0,0,0,0,0,0.1c0,0,0,0,0,0l0.3,0.4
		c0,0,0.1,0.1,0.1,0.1c0.1,0.1,0.2,0.2,0.2,0.3c0,0,0,0.1,0,0.2c0,0.1,0,0.1,0,0.2c-0.1,0.1-0.1,0.1-0.2,0.2c-0.1,0-0.2,0-0.3,0
		c-0.1,0-0.2,0-0.3,0l-0.6-0.2l-0.3-0.1c-0.1,0-0.2-0.1-0.2-0.1c-0.3-0.1-0.6-0.3-0.8-0.5c-0.1-0.1-0.3-0.2-0.4-0.4
		c-0.1-0.1-0.2-0.3-0.3-0.4l-0.4-0.8l-0.1-0.3c0-0.1-0.1-0.2-0.1-0.3l-0.2-0.4l-0.3-1.2c-0.1-0.3-0.2-0.7-0.2-1
		c-0.1-0.3-0.1-0.7-0.2-1.1c-0.1-0.6-0.1-1.2-0.1-1.8c0-0.6,0-1.2,0.1-1.8l-0.5,1.1c-0.2,0.3-0.4,0.7-0.5,1.1
		c-0.2,0.4-0.4,0.7-0.6,1.1l-0.8,1c-0.1,0.1-0.2,0.3-0.3,0.4c-0.1,0.1-0.2,0.3-0.3,0.4c-0.3,0.5-0.7,0.8-1.3,1.1
		c-0.5,0.2-1.1,0.3-1.6,0.3c-0.4,0-0.8-0.1-1.2-0.2l-0.6-0.2l-0.4-0.2c-0.1-0.1-0.3-0.2-0.4-0.3c-0.1,0-0.1-0.1-0.2-0.1l0.1,0.1
		c-0.2-0.1-0.5-0.3-0.7-0.5c-0.2-0.2-0.4-0.4-0.6-0.7l-0.4-0.7c-0.2-0.3-0.3-0.5-0.4-0.8C152.3,113,152.2,112.7,152.2,112.3z
		 M157.1,115.3c0.1,0,0.2,0,0.2,0c0.4-0.1,0.9-0.3,1.2-0.6c0.6-0.5,1.1-1,1.5-1.6c0.6-0.8,1.2-1.6,1.7-2.5c0.6-1,1.2-2.1,1.7-3.2
		l0.2-1c0.1-0.5,0.2-0.9,0.4-1.4c0.1-0.5,0.3-0.9,0.4-1.4c0,0,0,0,0-0.1c0,0,0,0,0,0c0-0.1,0-0.2,0-0.4c0-0.1,0-0.2-0.1-0.4v0
		c0,0,0,0,0-0.1c0,0,0-0.1,0-0.1c0,0,0,0,0,0c0,0,0,0,0,0c0,0,0,0,0,0v-0.1c0-0.1,0-0.1-0.1-0.2c0,0,0-0.1-0.1-0.1c0,0,0-0.1,0-0.1
		c0,0,0-0.1-0.1-0.1c0,0,0-0.1-0.1-0.1c0,0,0,0,0,0l-0.2-0.2h0c0,0,0,0,0,0l-0.2-0.2c0,0,0,0,0,0l-0.1-0.1c-0.1,0-0.1-0.1-0.2-0.1h0
		c0,0,0,0,0,0c0,0,0,0,0,0c0,0-0.1,0-0.1,0h-0.5l-0.2,0.1c-0.3,0.1-0.6,0.2-0.9,0.4l-0.2,0.2c-0.3,0.2-0.6,0.5-0.9,0.7
		c-0.3,0.3-0.5,0.6-0.8,0.9l-0.3,0.5c-0.3,0.4-0.6,0.9-0.8,1.4c-0.4,0.8-0.7,1.6-1,2.4c-0.3,0.8-0.5,1.7-0.7,2.5c0,0.1,0,0.1,0,0.2
		c0,0.1,0,0.1,0,0.2c-0.1,0.4-0.1,0.8-0.2,1.1c0,0.3-0.1,0.7-0.1,1c0,0.5,0,1,0.1,1.6c0,0.2,0.1,0.4,0.2,0.5
		C156.8,115,157,115.1,157.1,115.3L157.1,115.3z"/>
	<path class="st2" d="M174.7,95.1l1-2.2c0.2-0.3,0.4-0.7,0.5-1.1c0.2-0.4,0.3-0.7,0.5-1c0.1-0.2,0.3-0.4,0.5-0.5l0.4-0.1
		c0.2,0,0.3-0.1,0.5-0.1c0.5,0,1,0.1,1.4,0.4c0.4,0.2,0.8,0.5,1.1,0.8c0.1,0.2,0.2,0.3,0.3,0.5c0,0.1,0.1,0.2,0.1,0.3s0,0.2-0.1,0.3
		c-0.1,0.3-0.2,0.6-0.4,1c-0.1,0.3-0.3,0.6-0.5,1l-0.8,1.9c-0.9,2-1.7,4.1-2.5,6.1c-0.8,2.1-1.3,4.2-1.7,6.3c0,0,0,0.2,0,0.7
		c0,0.4,0,0.9,0,1.3c0.1,0.4,0.2,0.9,0.4,1.3c0.1,0.2,0.2,0.3,0.4,0.4c0.2,0.1,0.4,0.2,0.6,0.1c0.2,0,0.3-0.1,0.5-0.1
		c0.1-0.1,0.3-0.2,0.4-0.3c0.3-0.4,0.5-0.7,0.7-1.2c0.2-0.5,0.5-1,0.7-1.6c0.2-0.6,0.4-1.2,0.6-1.7c0.2-1.3,0.5-2.5,0.9-3.7
		c0.4-1.2,0.8-2.4,1.3-3.6h-1.6c-0.2,0-0.4,0-0.5-0.1c-0.2-0.1-0.3-0.2-0.4-0.4c0,0-0.1-0.1-0.1-0.2c0-0.1,0-0.1,0-0.2
		c0-0.1,0.1-0.1,0.1-0.1c0.1,0,0.1-0.1,0.2-0.1c0.5-0.1,0.9-0.1,1.4-0.2C181,99,181.5,99,182,99c0.2-0.4,0.3-0.8,0.5-1.2
		c0.2-0.4,0.4-0.8,0.5-1.2l1-2.1c0.2-0.4,0.4-0.7,0.5-1.1c0.2-0.4,0.3-0.7,0.5-1c0.1-0.2,0.3-0.4,0.5-0.5l0.4-0.1
		c0.1,0,0.3-0.1,0.4-0.1c0.2,0,0.4,0,0.6,0.1c0.2,0.1,0.4,0.1,0.6,0.2c0.6,0.1,1,0.4,1.4,0.9c0.1,0.1,0.2,0.3,0.3,0.5
		c0,0.1,0.1,0.2,0.1,0.3c0,0.1,0,0.2-0.1,0.3c-0.1,0.3-0.2,0.7-0.4,1c-0.1,0.3-0.3,0.6-0.5,1l-0.9,1.9c-0.2,0.3-0.4,0.7-0.5,1.1h0.5
		h0.6c0.2,0,0.4,0,0.6,0.1l1.2,0.1l0.6,0.1c0.2,0,0.5,0,0.7,0.1c0.2,0,0.3,0.1,0.5,0.2c0.2,0.1,0.3,0.2,0.4,0.4c0,0,0.1,0.1,0,0.2
		c0,0.1,0,0.1-0.1,0.2c-0.1,0.1-0.2,0.1-0.3,0.2c-0.2,0.1-0.5,0.1-0.8,0.1c-0.1,0-0.2,0-0.3,0c-0.1,0-0.2,0-0.3,0h-1.3
		c-0.2,0-0.4,0-0.6,0h-0.6c-0.2,0-0.4,0-0.6,0h-0.6h-0.3c-1.6,3.7-2.8,7.6-3.4,11.5c0,0.2,0,0.4-0.1,0.6s-0.1,0.4-0.1,0.6
		c0,0.2-0.1,0.5-0.1,0.8c0,0.3,0,0.5-0.1,0.8c0,0.2,0,0.4,0,0.5c0,0.2,0,0.4-0.1,0.5l-0.2,0.7c0,0.1-0.1,0.2-0.2,0.2
		c-0.1,0.1-0.2,0.1-0.3,0.1c-0.2,0.1-0.4,0.1-0.6,0.1c-0.2,0-0.3,0-0.5-0.1c-0.2-0.1-0.4-0.1-0.6-0.2c-0.2-0.1-0.3-0.2-0.5-0.3
		c-0.1-0.1-0.3-0.3-0.3-0.4c-0.2-0.5-0.4-0.9-0.5-1.4c-0.1-0.5-0.1-1-0.2-1.5v-0.4c0-0.1,0-0.2,0-0.4c-0.3,0.6-0.6,1.1-0.9,1.7
		c-0.3,0.5-0.6,1-1,1.4c-0.3,0.4-0.7,0.7-1,1c-0.3,0.2-0.7,0.4-1.1,0.4c-0.3,0-0.6-0.1-0.9-0.2c-0.3-0.1-0.7-0.2-1-0.4
		c-0.3-0.2-0.6-0.4-0.9-0.6c-0.3-0.2-0.5-0.4-0.6-0.7c-0.2-0.3-0.3-0.7-0.3-1c0-0.2-0.1-0.3-0.1-0.5c0-0.2-0.1-0.3-0.1-0.5
		c0-0.2-0.1-0.4-0.1-0.7c0-0.2,0-0.4-0.1-0.7c0-0.2,0-0.4,0-0.7c0-0.2,0-0.4,0-0.6c0-1.3,0.1-2.5,0.4-3.7c0.3-1.3,0.6-2.6,1-3.9
		c0.4-1.3,0.9-2.6,1.4-3.8C173.8,97.5,174.2,96.2,174.7,95.1z"/>
	<path class="st2" d="M202.6,99.8c0.7,0.1,1.4,0.5,1.9,1c0.4,0.4,0.6,0.9,0.7,1.5c0.1,0.6,0,1.2-0.1,1.8c-0.2,0.7-0.4,1.3-0.6,2
		c-0.3,0.7-0.5,1.4-0.8,2.1c-0.3,0.6-0.5,1.3-0.6,2c-0.2,0.9-0.3,1.8-0.4,2.5c-0.1,0.6-0.1,1.3-0.2,1.9c0,0.5,0,1.1,0.1,1.6
		c0.1,0.5,0.2,1,0.3,1.5c0.1,0.1,0.1,0.2,0.1,0.3c0,0.1,0,0.2-0.1,0.3c-0.1,0.1-0.2,0.1-0.2,0.2c-0.1,0-0.2,0.1-0.3,0
		c-0.3,0-0.6-0.1-0.9-0.2c-0.2-0.1-0.5-0.2-0.8-0.4c-0.3-0.2-0.6-0.4-0.9-0.7c-0.3-0.4-0.6-0.8-0.8-1.2c-0.2-0.6-0.4-1.3-0.4-2
		c0-1,0.1-2,0.3-3c0.3-1.4,0.6-2.8,1.1-4.2c0.3-0.9,0.6-1.7,0.7-2.4c0.1-0.5,0.3-1,0.3-1.5c0.1-0.3,0.1-0.5,0-0.8
		c0-0.1-0.1-0.2-0.2-0.2c-0.1,0-0.4,0.2-0.7,0.5c-0.3,0.3-0.6,0.6-0.9,0.9c-0.4,0.4-0.7,0.9-1.1,1.3c-0.5,0.7-1,1.5-1.4,2.3
		c-0.5,0.9-1.1,2-1.6,3.2c-0.6,1.2-1.1,2.6-1.6,4.1c0,0.1,0,0.1,0,0.2c0,0.1,0,0.1,0,0.2c0,0.2,0,0.4,0,0.5c0,0.2,0,0.4-0.1,0.5
		c0,0.1-0.1,0.2-0.1,0.3c0,0.1-0.1,0.2-0.1,0.3c0,0.1-0.1,0.2-0.1,0.2c-0.1,0.1-0.1,0.1-0.2,0.1c-0.2,0.1-0.4,0.1-0.5,0.1
		c-0.2,0-0.4,0-0.5-0.1c-0.2-0.1-0.4-0.1-0.6-0.2c-0.2-0.1-0.3-0.2-0.5-0.4c-0.1-0.1-0.3-0.3-0.3-0.4c-0.2-0.5-0.4-0.9-0.5-1.4
		c-0.1-0.5-0.1-1-0.2-1.5c0-0.2,0-0.5,0-0.7c0-0.2,0-0.4,0-0.7c0-1.3,0.1-2.5,0.4-3.7c0.3-1.3,0.6-2.6,1-3.9
		c0.4-1.3,0.9-2.6,1.4-3.8c0.5-1.3,1-2.4,1.5-3.5l1-2.1c0.2-0.3,0.4-0.7,0.5-1c0.2-0.4,0.3-0.7,0.5-1.1c0-0.1,0.1-0.2,0.2-0.3
		c0.1-0.1,0.2-0.1,0.3-0.2l0.4-0.1c0.1,0,0.3,0,0.4,0c0.5,0,1,0.1,1.4,0.3c0.4,0.2,0.8,0.5,1.1,0.9c0.1,0.2,0.2,0.3,0.3,0.5
		c0,0.1,0.1,0.2,0.1,0.3c0,0.1,0,0.2-0.1,0.3c-0.1,0.3-0.2,0.6-0.4,1c-0.1,0.3-0.3,0.6-0.5,1l-0.9,1.9c-0.5,1.2-1,2.3-1.5,3.5
		c-0.5,1.1-0.9,2.3-1.3,3.5c-0.3,0.8-0.5,1.6-0.7,2.4c-0.2,0.8-0.4,1.6-0.6,2.4c0.4-0.9,0.8-2,1.3-3.1c0.5-1.1,1.1-2.2,1.7-3.2
		c0.6-0.9,1.3-1.8,2.1-2.5c0.7-0.6,1.5-1,2.4-1C202.1,99.7,202.4,99.7,202.6,99.8z"/>
	<path class="st2" d="M233.8,86.2c0.1,0.4,0.2,0.7,0.3,1.1c0.1,0.5,0.1,1.1,0,1.6c-0.1,0.6-0.3,1.3-0.7,1.8
		c-0.3,0.5-0.7,0.9-1.2,1.2c-0.5,0.3-1,0.5-1.6,0.6c-0.7,0.1-1.3,0.2-2,0.2c-1.2,0-2.4-0.2-3.6-0.4l-1-0.2l-0.2,0.7l-0.2,0.9
		c-0.1,0.3-0.2,0.6-0.2,0.9c-0.1,0.5-0.2,1-0.4,1.5c-0.2,0.5-0.3,1-0.5,1.5c-0.7,2.1-1.3,4.3-1.8,6.4c-0.6,2.1-1,4.3-1.4,6.5
		c-0.1,0.7-0.2,1.4-0.3,2.1c-0.1,0.7-0.2,1.4-0.3,2.1l-0.2,0.9c0,0.2-0.1,0.4-0.1,0.6c0,0.2-0.1,0.4-0.1,0.6c0,0.2-0.1,0.3-0.2,0.4
		c-0.1,0.1-0.2,0.2-0.4,0.3c-0.3,0.1-0.6,0.2-0.9,0.2c-0.2,0-0.5,0-0.7-0.1c-0.2-0.1-0.4-0.1-0.6-0.2c-0.3-0.1-0.5-0.3-0.8-0.4
		c-0.3-0.1-0.5-0.4-0.6-0.6c-0.1-0.1-0.2-0.3-0.2-0.4c-0.1-0.1-0.1-0.3-0.1-0.4c0,0,0-0.1,0-0.2c0-0.3,0-0.6,0-0.9
		c0-0.3,0-0.6,0.1-0.9c0-0.3,0-0.6,0.1-0.9c0-0.3,0.1-0.6,0.1-0.9c0.4-2.5,0.9-5.1,1.5-7.5c0.6-2.5,1.3-4.9,2.1-7.4
		c0.1-0.3,0.2-0.6,0.3-0.9c0.1-0.3,0.2-0.6,0.3-0.9l0.6-1.8l0.6-1.3h-0.8c-1.5,0-3,0.1-4.4,0.6c-0.9,0.3-1.8,0.7-2.5,1.4
		c-0.2,0.2-0.4,0.5-0.5,0.8c-0.1,0.3-0.1,0.7-0.1,1c0.2,0.7,0.7,1.4,1.4,1.8c0.1,0.2,0.2,0.4,0.3,0.6c0.1,0.2,0,0.4,0,0.6
		c-0.1,0.2-0.3,0.3-0.4,0.4c-0.1,0.1-0.3,0.1-0.4,0.1c-0.5,0-1-0.2-1.4-0.5c-0.6-0.3-1-0.8-1.3-1.4c-0.3-0.7-0.5-1.6-0.4-2.4
		c0.4-2,1.4-3.9,3-5.3c0.6-0.5,1.2-0.9,1.9-1.2c0.7-0.3,1.3-0.5,2-0.6c0.7-0.1,1.4-0.2,2.1-0.2c1.2,0,2.5,0.1,3.7,0.4
		c1.2,0.3,2.1,0.4,2.9,0.6c0.3,0,0.7,0.1,1,0.1c0.4,0,0.7,0.1,1.1,0.1c0.7,0,1.4-0.1,2-0.2c0.6-0.1,1.2-0.2,1.8-0.4
		c0.5-0.1,0.9-0.4,1.2-0.7c0.1-0.1,0.3-0.3,0.3-0.4c0.1-0.2,0.1-0.4,0.1-0.5c-0.1-0.3,0-0.6,0.1-0.9c0.1-0.1,0.1-0.2,0.2-0.2
		c0.1,0,0.2-0.1,0.3-0.1c0.3,0,0.6,0.1,0.9,0.3C233.4,85.5,233.7,85.8,233.8,86.2z"/>
	<path class="st2" d="M227.3,112.4c0-0.6,0-1.2,0.1-1.8c0.1-0.9,0.3-1.8,0.6-2.7c0.3-0.9,0.6-1.8,1-2.6c0.3-0.6,0.6-1.2,1-1.7
		c0.2-0.3,0.3-0.5,0.5-0.7c0.2-0.2,0.3-0.5,0.5-0.7l1.1-1.3c0.4-0.4,0.8-0.8,1.3-1.1h0c0,0,0,0,0,0c0.2-0.1,0.3-0.2,0.5-0.3l0.5-0.2
		l0.3-0.1c0.1,0,0.1,0,0.2,0c0,0,0,0,0,0c0,0,0.1,0,0.1,0c0,0,0.1,0,0.1,0h0.4c0.3,0,0.6,0,0.8,0.1c0.3,0.1,0.5,0.1,0.8,0.2
		c0.1,0,0.1,0,0.1,0.1c0,0,0.1,0,0.1,0c0.1,0,0.1,0,0.1,0c0,0,0.1,0,0.1,0c0,0,0.1,0,0.1,0.1c0.3,0.1,0.6,0.3,0.9,0.5
		c0,0,0.1,0.1,0.1,0.1l0.1,0.1c0,0,0,0,0.1,0c0,0,0.1,0.1,0.1,0.1l0.3,0.4c0.2,0.3,0.3,0.6,0.4,1c0.2,0.7,0.1,1.5-0.2,2.2l-0.3,0.5
		c-0.1,0.2-0.2,0.3-0.3,0.5l-0.3,0.4c-0.4,0.5-0.7,0.9-1.1,1.4c-0.5,0.5-1,1-1.6,1.4c-0.6,0.4-1.3,0.8-2,1.1
		c-0.8,0.3-1.6,0.5-2.5,0.5c-0.1,0.3-0.2,0.7-0.2,1c-0.1,0.3-0.1,0.6-0.2,1c-0.1,0.8-0.1,1.5,0,2.3c0,0.1,0.1,0.1,0,0.2
		c0,0.1,0,0.1,0,0.2l0.2,0.6l0.2,0.2h0c0,0,0,0,0,0c0,0,0,0,0.1,0c0,0,0,0,0,0l0,0c0.4,0.3,0.8,0.4,1.3,0.4c0.6,0,1.2-0.2,1.7-0.5
		c0.5-0.3,1-0.7,1.5-1.2c0.5-0.5,0.9-1,1.3-1.5c0.4-0.5,0.7-1,1-1.5c0,0.1,0.1,0.2,0,0.2l-0.4,1.5c0,0.1-0.1,0.2-0.1,0.4
		c0,0.1-0.1,0.2-0.2,0.4l-0.4,0.7c-0.5,0.9-1.2,1.6-2.1,2.1c-0.3,0.3-0.8,0.5-1.2,0.6c-0.4,0.1-0.9,0.2-1.3,0.2c-0.2,0-0.3,0-0.5,0
		c-0.1,0-0.3,0-0.5,0h0c0,0-0.1,0-0.1,0c0,0-0.1,0-0.1,0c-0.3-0.1-0.6-0.2-0.9-0.3c-0.3-0.1-0.6-0.2-0.8-0.4c-0.5-0.3-1-0.7-1.3-1.2
		c-0.4-0.5-0.7-1-0.8-1.6c-0.1-0.2-0.1-0.4-0.2-0.6C227.4,112.9,227.4,112.7,227.3,112.4z M231.1,114.3c0,0,0-0.1,0-0.1
		C231,114.2,231,114.2,231.1,114.3C231,114.2,231.1,114.2,231.1,114.3z M231.5,117.1L231.5,117.1c0,0,0.1,0,0.1,0H231.5z
		 M237.6,104.5C237.6,104.5,237.6,104.4,237.6,104.5c0-0.1,0-0.1,0-0.1c0.1-0.1,0.2-0.3,0.2-0.4c0.1-0.1,0.1-0.3,0.2-0.4
		c0,0,0.1-0.1,0.1-0.1c0-0.1,0.1-0.3,0.1-0.4c0-0.1,0.1-0.3,0.1-0.4l0.1-0.2v-0.6c0,0,0-0.1,0-0.2c0-0.1,0-0.1,0-0.2v0l-0.1-0.3
		l-0.1-0.2c0,0,0-0.1,0-0.1l0,0c0,0-0.1-0.1-0.1-0.1c0,0,0,0,0,0c0,0,0,0,0,0c0,0,0,0,0,0s0,0,0,0c0,0-0.1-0.1-0.1-0.1
		c0,0-0.1-0.1-0.1-0.1l0,0c0,0,0,0-0.2-0.1h0c0,0,0,0,0,0c0,0,0,0,0,0c0,0,0,0,0,0c0,0,0,0,0,0h-0.3c0,0,0,0,0,0c0,0,0,0,0,0
		c0,0,0,0,0,0c0,0,0,0,0,0l-0.2,0.1c0,0,0,0,0,0c0,0,0,0,0,0c0,0,0,0,0,0c0,0-0.1,0.1-0.2,0.1c0,0,0,0.1-0.1,0.1l-0.2,0.2
		c-0.1,0.1-0.2,0.1-0.3,0.2c-0.1,0.1-0.2,0.1-0.3,0.2l-0.5,0.5c-0.3,0.5-0.7,0.9-1,1.4c-0.3,0.5-0.6,1-0.8,1.5l-0.8,1.7
		c-0.1,0.3-0.2,0.6-0.3,0.9c-0.1,0.3-0.2,0.6-0.3,0.9c0.4,0,0.8-0.1,1.1-0.2c0.5-0.1,1-0.3,1.5-0.5c0.6-0.3,1.1-0.7,1.6-1.1
		C236.7,105.8,237.2,105.1,237.6,104.5z"/>
	<path class="st2" d="M241.7,110.6c0.2-1.1,0.4-2.2,0.8-3.3c0.4-1.2,0.9-2.3,1.4-3.3c0.6-1.1,1.3-2,2.1-2.9c0.8-0.8,1.7-1.5,2.8-1.9
		l0.3-0.1h0.1c0,0,0.1,0,0.1,0h0.2c0,0,0,0,0.1,0h0.6c0.4,0,0.7,0.1,1,0.2l0.3,0.1c0,0,0,0,0.1,0c0,0,0,0,0,0c0,0,0,0,0.1,0h0
		c0,0,0.1,0,0.1,0c0,0,0,0,0.1,0c0,0,0,0,0,0c0,0,0,0,0,0c0.1,0,0.2,0.1,0.2,0.1c0.3,0.1,0.6,0.3,0.9,0.6c0,0,0.1,0,0.1,0.1
		c0,0.1,0,0,0,0s0,0,0,0c0,0,0,0.1,0.1,0.1c0,0,0,0,0.1,0.1l0.3,0.4c0.2,0.3,0.3,0.6,0.4,1c0.2,0.7,0.1,1.5-0.2,2.2
		c-0.1,0.2-0.1,0.4-0.2,0.5c-0.1,0.2-0.2,0.3-0.3,0.5c0,0.1-0.1,0.2-0.2,0.2c-0.1,0.1-0.1,0.1-0.2,0.2c-0.1,0.1-0.1,0.1-0.2,0.2
		c-0.1,0.1-0.1,0.1-0.2,0.2c-0.1,0.1-0.2,0.1-0.3,0.1c-0.1,0-0.2-0.1-0.3-0.1c-0.1-0.1-0.2-0.1-0.3-0.2c0,0-0.1-0.1-0.1-0.1
		c0-0.1,0-0.1,0-0.2l0.2-0.5c0.1-0.1,0.1-0.2,0.1-0.2l0.2-0.4c0.1-0.2,0.2-0.3,0.2-0.4c0-0.1,0.1-0.2,0.1-0.3c0-0.1,0.1-0.3,0.1-0.4
		c0-0.1,0.1-0.3,0.1-0.4l0.1-0.2v-0.4c0,0,0-0.1,0-0.2c0-0.1,0-0.1,0-0.2v0l-0.1-0.3l-0.1-0.2v0c0,0,0,0,0,0c0,0,0,0,0,0
		c0,0,0,0,0,0c0,0,0-0.1-0.1-0.1c0,0,0-0.1,0-0.1c0,0,0,0,0-0.1c0,0-0.1,0-0.1-0.1c0-0.1-0.1,0-0.1-0.1h0c0,0-0.1-0.1-0.2-0.1l0,0
		h-0.4l-0.1,0.1h-0.1l-0.1,0.1c0,0,0,0-0.2,0.1l-0.1,0.1c0,0,0,0,0,0l-0.2,0.1l-1,1c-0.2,0.2-0.3,0.4-0.5,0.6l-0.4,0.7
		c-0.2,0.3-0.3,0.5-0.5,0.8c-0.1,0.3-0.3,0.6-0.5,0.9l-0.8,1.7c-0.4,0.9-0.7,1.7-1,2.6c-0.3,0.9-0.5,1.8-0.6,2.7
		c0,0.4-0.1,0.8-0.1,1.2c0,0.4,0,0.8,0.1,1.2l0,0c0,0,0,0,0,0c0,0,0,0,0,0c0,0,0,0.1,0,0.1c0,0,0,0.1,0,0.1l0.2,0.6l0.2,0.3h0.1
		l0,0.1c0.4,0.3,0.8,0.4,1.3,0.4c0.6,0,1.2-0.2,1.7-0.5c0.6-0.3,1.1-0.7,1.5-1.2c0.5-0.5,0.9-1,1.3-1.5c0.4-0.5,0.7-1,0.9-1.5
		c0,0.2,0.1,0.3,0,0.3l-0.4,1.5c0,0.1-0.1,0.2-0.1,0.4c0,0.1-0.1,0.3-0.2,0.4l-0.4,0.7c-0.5,0.9-1.2,1.6-2.1,2.1
		c-0.4,0.3-0.8,0.5-1.2,0.6c-0.4,0.1-0.9,0.2-1.3,0.2c-0.4,0-0.8,0-1.2-0.1h0.1c-0.6-0.1-1.2-0.3-1.8-0.7v0c-0.7-0.4-1.3-1-1.7-1.7
		c-0.4-0.7-0.6-1.5-0.7-2.3c0-0.3,0-0.6,0-0.9C241.7,111.2,241.7,110.9,241.7,110.6z"/>
	<path class="st2" d="M269.9,99.8c0.7,0.1,1.4,0.5,1.9,1c0.4,0.4,0.6,0.9,0.7,1.5c0.1,0.6,0,1.2-0.1,1.8c-0.2,0.7-0.4,1.3-0.6,2
		c-0.3,0.7-0.5,1.4-0.8,2.1c-0.3,0.6-0.5,1.3-0.6,2c-0.2,0.9-0.3,1.8-0.4,2.5c-0.1,0.6-0.1,1.3-0.2,1.9c0,0.5,0,1.1,0.1,1.6
		c0.1,0.5,0.2,1,0.3,1.5c0,0.1,0.1,0.2,0.1,0.3c0,0.1,0,0.2-0.1,0.3c-0.1,0.1-0.2,0.1-0.2,0.2c-0.1,0-0.2,0-0.3,0
		c-0.3,0-0.6-0.1-0.9-0.2c-0.2-0.1-0.5-0.2-0.8-0.4c-0.3-0.2-0.6-0.4-0.9-0.7c-0.3-0.4-0.6-0.8-0.8-1.2c-0.2-0.6-0.4-1.3-0.4-2
		c0-1,0.1-2,0.3-3c0.3-1.4,0.6-2.8,1.1-4.2c0.3-0.9,0.6-1.7,0.7-2.4c0.1-0.5,0.3-1,0.3-1.5c0.1-0.3,0.1-0.5,0-0.8
		c0-0.1-0.1-0.2-0.2-0.2c-0.1,0-0.4,0.2-0.7,0.5c-0.3,0.3-0.6,0.6-0.9,0.9c-0.4,0.4-0.7,0.9-1.1,1.3c-0.5,0.7-1,1.5-1.4,2.3
		c-0.5,0.9-1,2-1.6,3.2c-0.5,1.2-1.1,2.6-1.6,4.1c0,0.1,0,0.1,0,0.2c0,0.1,0,0.1,0,0.2c0,0.2,0,0.4,0,0.5c0,0.2,0,0.4-0.1,0.5
		c0,0.1-0.1,0.2-0.1,0.3c0,0.1-0.1,0.2-0.1,0.3c0,0.1-0.1,0.2-0.1,0.2c-0.1,0.1-0.1,0.1-0.2,0.1c-0.2,0.1-0.4,0.1-0.5,0.1
		c-0.2,0-0.4,0-0.6-0.1c-0.2-0.1-0.4-0.1-0.6-0.2c-0.2-0.1-0.3-0.2-0.5-0.4c-0.1-0.1-0.2-0.3-0.3-0.4c-0.2-0.5-0.4-0.9-0.5-1.4
		c-0.1-0.5-0.1-1-0.2-1.5c0-0.2,0-0.5,0-0.7c0-0.2,0-0.4,0-0.7c0-1.3,0.1-2.5,0.4-3.7c0.3-1.3,0.6-2.6,1-3.9
		c0.4-1.3,0.9-2.6,1.4-3.8c0.5-1.3,1-2.4,1.5-3.5l1-2.1c0.2-0.3,0.4-0.7,0.5-1c0.1-0.4,0.3-0.7,0.5-1.1c0-0.1,0.1-0.2,0.2-0.3
		c0.1-0.1,0.2-0.2,0.3-0.2l0.4-0.1c0.1,0,0.2,0,0.4,0c0.5,0,1,0.1,1.4,0.3c0.4,0.2,0.8,0.5,1.1,0.9c0.1,0.2,0.2,0.3,0.3,0.5
		c0,0.1,0.1,0.2,0.1,0.3c0,0.1,0,0.2-0.1,0.3c-0.1,0.3-0.2,0.6-0.4,1c-0.1,0.3-0.3,0.6-0.5,1l-0.8,1.9c-0.5,1.2-1,2.3-1.5,3.5
		c-0.5,1.1-0.9,2.3-1.3,3.5c-0.3,0.8-0.5,1.6-0.7,2.4c-0.2,0.8-0.4,1.6-0.6,2.4c0.4-0.9,0.8-2,1.3-3.1c0.5-1.1,1.1-2.2,1.7-3.2
		c0.6-0.9,1.3-1.8,2.1-2.5c0.7-0.6,1.5-1,2.4-1C269.4,99.7,269.6,99.7,269.9,99.8z"/>
	<path class="st0" d="M286,39.2V41h-2.9v9H281v-9h-2.9v-1.7H286z M299.3,39.2V50h-2.2v-7l-2.9,7h-1.6l-2.9-7v7h-2.2V39.2h2.4l3.4,8
		l3.4-8H299.3z"/>
</g>
</svg>
